<svg width="1463" height="405" viewBox="0 0 1463 405" fill="none" xmlns="http://www.w3.org/2000/svg">
<path d="M578.396 19.6159C579.121 19.0399 579.452 18.7733 579.388 18.8159C581.478 17.0879 583.121 15.6693 584.316 14.5599C585.532 13.4506 586.556 12.2879 587.388 11.0719C588.22 9.85595 588.636 8.67195 588.636 7.51995C588.636 6.64528 588.433 5.96261 588.028 5.47195C587.622 4.98128 587.014 4.73595 586.204 4.73595C585.393 4.73595 584.753 5.04528 584.284 5.66395C583.836 6.26128 583.612 7.11461 583.612 8.22395H578.332C578.374 6.41061 578.758 4.89595 579.484 3.67995C580.23 2.46395 581.201 1.56795 582.396 0.991947C583.612 0.415947 584.956 0.127947 586.428 0.127947C588.966 0.127947 590.876 0.778613 592.156 2.07995C593.457 3.38128 594.108 5.07728 594.108 7.16795C594.108 9.45061 593.329 11.5733 591.772 13.5359C590.214 15.4773 588.23 17.3759 585.82 19.2319H594.46V23.6799H578.396V19.6159Z" fill="#FFFA7B"/>
<path d="M608.421 6.94395C608.25 6.15461 607.952 5.56795 607.525 5.18395C607.098 4.77861 606.49 4.57595 605.701 4.57595C604.485 4.57595 603.61 5.10928 603.077 6.17595C602.544 7.22128 602.266 8.88528 602.245 11.1679C602.714 10.4213 603.386 9.83461 604.261 9.40795C605.157 8.98128 606.138 8.76795 607.205 8.76795C609.296 8.76795 610.97 9.42928 612.229 10.7519C613.509 12.0746 614.149 13.9199 614.149 16.2879C614.149 17.8453 613.829 19.2106 613.189 20.3839C612.57 21.5573 611.653 22.4746 610.437 23.1359C609.242 23.7973 607.824 24.1279 606.181 24.1279C602.896 24.1279 600.613 23.1039 599.333 21.0559C598.053 18.9866 597.413 16.0213 597.413 12.1599C597.413 8.10662 598.085 5.09862 599.429 3.13595C600.794 1.15195 602.97 0.159946 605.957 0.159946C607.557 0.159946 608.901 0.479947 609.989 1.11995C611.098 1.73861 611.93 2.55995 612.485 3.58395C613.061 4.60795 613.402 5.72795 613.509 6.94395H608.421ZM605.893 13.0879C604.976 13.0879 604.208 13.3653 603.589 13.9199C602.992 14.4533 602.693 15.2213 602.693 16.2239C602.693 17.2479 602.97 18.0479 603.525 18.6239C604.101 19.1999 604.912 19.4879 605.957 19.4879C606.896 19.4879 607.632 19.2106 608.165 18.6559C608.72 18.0799 608.997 17.3013 608.997 16.3199C608.997 15.3173 608.73 14.5279 608.197 13.9519C607.664 13.3759 606.896 13.0879 605.893 13.0879Z" fill="#FFFA7B"/>
<path d="M644.665 23.9999H639.193L630.041 10.1439V23.9999H624.569V1.53595H630.041L639.193 15.4559V1.53595H644.665V23.9999Z" fill="#FFFA7B"/>
<path d="M659.256 24.2239C657.144 24.2239 655.202 23.7333 653.432 22.7519C651.682 21.7706 650.285 20.4053 649.24 18.6559C648.216 16.8853 647.704 14.9013 647.704 12.7039C647.704 10.5066 648.216 8.53328 649.24 6.78395C650.285 5.03461 651.682 3.66928 653.432 2.68795C655.202 1.70661 657.144 1.21595 659.256 1.21595C661.368 1.21595 663.298 1.70661 665.048 2.68795C666.818 3.66928 668.205 5.03461 669.208 6.78395C670.232 8.53328 670.744 10.5066 670.744 12.7039C670.744 14.9013 670.232 16.8853 669.208 18.6559C668.184 20.4053 666.797 21.7706 665.048 22.7519C663.298 23.7333 661.368 24.2239 659.256 24.2239ZM659.256 19.2319C661.048 19.2319 662.477 18.6346 663.544 17.4399C664.632 16.2453 665.176 14.6666 665.176 12.7039C665.176 10.7199 664.632 9.14128 663.544 7.96795C662.477 6.77328 661.048 6.17595 659.256 6.17595C657.442 6.17595 655.992 6.76261 654.904 7.93595C653.837 9.10928 653.304 10.6986 653.304 12.7039C653.304 14.6879 653.837 16.2773 654.904 17.4719C655.992 18.6453 657.442 19.2319 659.256 19.2319Z" fill="#FFFA7B"/>
<path d="M694.876 1.53595L686.908 23.9999H680.06L672.092 1.53595H677.916L683.484 18.4959L689.084 1.53595H694.876Z" fill="#FFFA7B"/>
<path d="M702.635 5.91995V10.4639H709.963V14.6879H702.635V19.6159H710.923V23.9999H697.163V1.53595H710.923V5.91995H702.635Z" fill="#FFFA7B"/>
<path d="M739.915 1.53595V23.9999H734.443V10.5279L729.419 23.9999H725.003L719.947 10.4959V23.9999H714.475V1.53595H720.939L727.243 17.0879L733.483 1.53595H739.915Z" fill="#FFFA7B"/>
<path d="M757.45 12.4799C758.752 12.7573 759.797 13.4079 760.586 14.4319C761.376 15.4346 761.77 16.5866 761.77 17.8879C761.77 19.7653 761.109 21.2586 759.786 22.3679C758.485 23.4559 756.661 23.9999 754.314 23.9999H743.85V1.53595H753.962C756.245 1.53595 758.026 2.05861 759.306 3.10395C760.608 4.14928 761.258 5.56795 761.258 7.35995C761.258 8.68261 760.906 9.78128 760.202 10.6559C759.52 11.5306 758.602 12.1386 757.45 12.4799ZM749.322 10.6239H752.906C753.802 10.6239 754.485 10.4319 754.954 10.0479C755.445 9.64261 755.69 9.05595 755.69 8.28795C755.69 7.51995 755.445 6.93328 754.954 6.52795C754.485 6.12262 753.802 5.91995 752.906 5.91995H749.322V10.6239ZM753.354 19.5839C754.272 19.5839 754.976 19.3813 755.466 18.9759C755.978 18.5493 756.234 17.9413 756.234 17.1519C756.234 16.3626 755.968 15.7439 755.434 15.2959C754.922 14.8479 754.208 14.6239 753.29 14.6239H749.322V19.5839H753.354Z" fill="#FFFA7B"/>
<path d="M776.4 23.9999L771.728 15.5199H770.416V23.9999H764.944V1.53595H774.128C775.899 1.53595 777.403 1.84528 778.64 2.46395C779.899 3.08261 780.837 3.93595 781.456 5.02395C782.075 6.09061 782.384 7.28528 782.384 8.60795C782.384 10.1013 781.957 11.4346 781.104 12.6079C780.272 13.7813 779.035 14.6133 777.392 15.1039L782.576 23.9999H776.4ZM770.416 11.6479H773.808C774.811 11.6479 775.557 11.4026 776.048 10.9119C776.56 10.4213 776.816 9.72795 776.816 8.83195C776.816 7.97861 776.56 7.30662 776.048 6.81595C775.557 6.32528 774.811 6.07995 773.808 6.07995H770.416V11.6479Z" fill="#FFFA7B"/>
<path d="M791.291 5.91995V10.4639H798.619V14.6879H791.291V19.6159H799.579V23.9999H785.819V1.53595H799.579V5.91995H791.291Z" fill="#FFFA7B"/>
<path d="M809.177 19.6159C809.902 19.0399 810.233 18.7733 810.169 18.8159C812.26 17.0879 813.902 15.6693 815.097 14.5599C816.313 13.4506 817.337 12.2879 818.169 11.0719C819.001 9.85595 819.417 8.67195 819.417 7.51995C819.417 6.64528 819.214 5.96261 818.809 5.47195C818.404 4.98128 817.796 4.73595 816.985 4.73595C816.174 4.73595 815.534 5.04528 815.065 5.66395C814.617 6.26128 814.393 7.11461 814.393 8.22395H809.113C809.156 6.41061 809.54 4.89595 810.265 3.67995C811.012 2.46395 811.982 1.56795 813.177 0.991947C814.393 0.415947 815.737 0.127947 817.209 0.127947C819.748 0.127947 821.657 0.778613 822.937 2.07995C824.238 3.38128 824.889 5.07728 824.889 7.16795C824.889 9.45061 824.11 11.5733 822.553 13.5359C820.996 15.4773 819.012 17.3759 816.601 19.2319H825.241V23.6799H809.177V19.6159Z" fill="#FFFA7B"/>
<path d="M827.65 11.9999C827.65 8.33061 828.354 5.43995 829.762 3.32795C831.191 1.21595 833.485 0.159946 836.642 0.159946C839.799 0.159946 842.082 1.21595 843.49 3.32795C844.92 5.43995 845.634 8.33061 845.634 11.9999C845.634 15.7119 844.92 18.6239 843.49 20.7359C842.082 22.8479 839.799 23.9039 836.642 23.9039C833.485 23.9039 831.191 22.8479 829.762 20.7359C828.354 18.6239 827.65 15.7119 827.65 11.9999ZM840.258 11.9999C840.258 9.84528 840.023 8.19195 839.554 7.03995C839.085 5.86661 838.114 5.27995 836.642 5.27995C835.17 5.27995 834.199 5.86661 833.73 7.03995C833.261 8.19195 833.026 9.84528 833.026 11.9999C833.026 13.4506 833.111 14.6559 833.282 15.6159C833.453 16.5546 833.794 17.3226 834.306 17.9199C834.839 18.4959 835.618 18.7839 836.642 18.7839C837.666 18.7839 838.434 18.4959 838.946 17.9199C839.479 17.3226 839.831 16.5546 840.002 15.6159C840.173 14.6559 840.258 13.4506 840.258 11.9999Z" fill="#FFFA7B"/>
<path d="M848.333 19.6159C849.058 19.0399 849.389 18.7733 849.325 18.8159C851.416 17.0879 853.059 15.6693 854.253 14.5599C855.469 13.4506 856.493 12.2879 857.325 11.0719C858.157 9.85595 858.573 8.67195 858.573 7.51995C858.573 6.64528 858.37 5.96261 857.965 5.47195C857.56 4.98128 856.952 4.73595 856.141 4.73595C855.331 4.73595 854.69 5.04528 854.221 5.66395C853.773 6.26128 853.549 7.11461 853.549 8.22395H848.269C848.312 6.41061 848.696 4.89595 849.421 3.67995C850.168 2.46395 851.138 1.56795 852.333 0.991947C853.549 0.415947 854.893 0.127947 856.365 0.127947C858.904 0.127947 860.813 0.778613 862.093 2.07995C863.394 3.38128 864.045 5.07728 864.045 7.16795C864.045 9.45061 863.267 11.5733 861.709 13.5359C860.152 15.4773 858.168 17.3759 855.757 19.2319H864.397V23.6799H848.333V19.6159Z" fill="#FFFA7B"/>
<path d="M866.998 7.23195C867.084 4.94928 867.83 3.18928 869.238 1.95195C870.646 0.714614 872.556 0.0959473 874.966 0.0959473C876.566 0.0959473 877.932 0.373281 879.062 0.927948C880.214 1.48261 881.078 2.23995 881.654 3.19995C882.252 4.15995 882.55 5.23728 882.55 6.43195C882.55 7.83995 882.198 8.99195 881.494 9.88795C880.79 10.7626 879.969 11.3599 879.03 11.6799V11.8079C880.246 12.2133 881.206 12.8853 881.91 13.8239C882.614 14.7626 882.966 15.9679 882.966 17.4399C882.966 18.7626 882.657 19.9359 882.038 20.9599C881.441 21.9626 880.556 22.7519 879.382 23.3279C878.23 23.9039 876.854 24.1919 875.254 24.1919C872.694 24.1919 870.646 23.5626 869.11 22.3039C867.596 21.0453 866.796 19.1466 866.71 16.6079H872.022C872.044 17.5466 872.31 18.2933 872.822 18.8479C873.334 19.3813 874.081 19.6479 875.062 19.6479C875.894 19.6479 876.534 19.4133 876.982 18.9439C877.452 18.4533 877.686 17.8133 877.686 17.0239C877.686 15.9999 877.356 15.2639 876.694 14.8159C876.054 14.3466 875.02 14.1119 873.59 14.1119H872.566V9.66395H873.59C874.678 9.66395 875.553 9.48261 876.214 9.11995C876.897 8.73595 877.238 8.06395 877.238 7.10395C877.238 6.33595 877.025 5.73861 876.598 5.31195C876.172 4.88528 875.585 4.67195 874.838 4.67195C874.028 4.67195 873.42 4.91728 873.014 5.40795C872.63 5.89861 872.406 6.50661 872.342 7.23195H866.998Z" fill="#FFFA7B"/>
<path d="M367.277 256.473H431.604V282.678H367.277C365.328 282.678 364.354 283.649 364.354 285.59V308.883C364.354 310.824 365.328 311.795 367.277 311.795H396.517C398.466 311.795 399.441 310.824 399.441 308.883V305.972H370.201V288.502H431.604V311.795C431.604 329.265 419.908 338 396.517 338H367.277C343.886 338 332.19 329.265 332.19 311.795V282.678C332.19 265.208 343.886 256.473 367.277 256.473Z" fill="#FFFA7B"/>
<path d="M466.691 282.678V294.325H501.778C503.727 294.325 504.702 293.354 504.702 291.413V285.59C504.702 283.649 503.727 282.678 501.778 282.678H466.691ZM437.452 256.473H501.778C525.169 256.473 536.865 265.208 536.865 282.678V294.325C536.865 299.45 535.871 303.817 533.882 307.427C535.871 311.038 536.865 315.405 536.865 320.53V338H504.702V323.442C504.702 321.501 503.727 320.53 501.778 320.53H466.691V338H437.452V256.473Z" fill="#FFFA7B"/>
<path d="M571.952 288.502H624.582V305.972H571.952V311.795H636.278V338H542.713V256.473H636.278V282.678H571.952V288.502Z" fill="#FFFA7B"/>
<path d="M677.213 256.473H741.539V282.678H677.213C675.264 282.678 674.289 283.649 674.289 285.59V308.883C674.289 310.824 675.264 311.795 677.213 311.795H706.452C708.401 311.795 709.376 310.824 709.376 308.883V305.972H680.137V288.502H741.539V311.795C741.539 329.265 729.844 338 706.452 338H677.213C653.822 338 642.126 329.265 642.126 311.795V282.678C642.126 265.208 653.822 256.473 677.213 256.473Z" fill="#FFFA7B"/>
<path d="M776.626 294.325V338H747.387V256.473H785.398L811.713 297.237L838.029 256.473H876.039V338H846.8V294.325L820.485 338H802.941L776.626 294.325Z" fill="#FFFA7B"/>
<path d="M911.127 294.325V338H881.887V256.473H919.898L946.214 297.237L972.529 256.473H1010.54V338H981.301V294.325L954.985 338H937.442L911.127 294.325Z" fill="#FFFA7B"/>
<path d="M1004.69 338L1051.47 256.473H1083.64L1130.42 338H1095.33L1089.49 326.353H1045.63L1039.78 338H1004.69ZM1074.87 300.148L1067.56 285.59L1060.25 300.148H1074.87Z" fill="#FFFA7B"/>
<path d="M66.7314 62.9999H92.5635L58.1272 128.208H34.4559L0 62.9999H25.8321L46.2818 104.914L66.7314 62.9999Z" fill="#FFF4BE"/>
<path d="M109.792 88.6328H148.53V102.597H109.792V107.252H157.154V128.208H88.2615V62.9999H157.134V83.9568H109.772V88.6115L109.792 88.6328Z" fill="#FFF4BE"/>
<path d="M182.966 128.23H161.436V62.9999H189.429L208.798 95.6042V62.9999H230.328V128.208H202.335L182.966 93.2662V128.23Z" fill="#FFF4BE"/>
<path d="M256.161 88.6328H294.899V102.597H256.161V107.252H303.523V128.208H234.65V62.9999H303.523V83.9568H256.161V88.6328Z" fill="#FFF4BE"/>
<path d="M340.1 83.978H307.805V62.9999H376.678V83.9568L344.383 107.252H376.678V128.208H307.805V107.252L340.1 83.9568V83.978Z" fill="#FFF4BE"/>
<path d="M460.991 62.9999H486.823L452.386 128.208H428.715L394.279 62.9999H420.111L440.561 104.914L461.01 62.9999H460.991Z" fill="#FFF4BE"/>
<path d="M504.051 62.9999V128.208H482.521V62.9999H504.051Z" fill="#FFF4BE"/>
<path d="M566.48 62.9999H592.312L557.876 128.208H534.205L499.768 62.9999H525.6L546.05 104.914L566.5 62.9999H566.48Z" fill="#FFF4BE"/>
<path d="M587.99 62.9999H635.352C652.58 62.9999 661.185 69.9926 661.185 83.9568V93.2662C661.185 97.3683 660.458 100.854 658.984 103.745C660.438 106.635 661.185 110.121 661.185 114.223V128.187H637.513V116.54C637.513 114.988 636.787 114.202 635.352 114.202H609.52V128.166H587.99V62.9999ZM609.52 93.2662H635.352C636.787 93.2662 637.513 92.4798 637.513 90.9282V86.2735C637.513 84.7219 636.787 83.9355 635.352 83.9355H609.52V93.2662Z" fill="#FFF4BE"/>
<path d="M687.017 88.6328H725.755V102.597H687.017V107.252H734.379V128.208H665.487V62.9999H734.379V83.9568H687.017V88.6328Z" fill="#FFF4BE"/>
<path d="M760.545 128.23V62.9999H782.075V107.252H829.437V128.208H760.545V128.23Z" fill="#FFF4BE"/>
<path d="M855.27 62.9999V83.9568L833.74 90.9495V62.9999H855.27Z" fill="#FFF4BE"/>
<path d="M850.948 128.23L885.384 63.0212H909.055L943.492 128.23H917.66L913.357 118.92H881.062L876.76 128.23H850.928H850.948ZM902.612 97.9422L897.23 86.2948L891.847 97.9422H902.612Z" fill="#FFF4BE"/>
<path d="M997.337 62.9999H1023.17L988.732 128.208H965.061L930.625 62.9999H956.457L976.906 104.914L997.356 62.9999H997.337Z" fill="#FFF4BE"/>
<path d="M1040.38 88.6328H1079.12V102.597H1040.38V107.252H1087.74V128.208H1018.85V62.9999H1087.74V83.9568H1040.38V88.6328Z" fill="#FFF4BE"/>
<path d="M1113.57 128.23H1092.04V62.9999H1120.03L1139.4 95.6042V62.9999H1160.93V128.208H1132.94L1113.57 93.2662V128.23Z" fill="#FFF4BE"/>
<path d="M1210.44 83.978V128.23H1188.91V83.978H1165.24V62.9999H1234.13V83.9568H1210.46L1210.44 83.978Z" fill="#FFF4BE"/>
<path d="M1287.93 62.9999H1311.6V107.252C1311.6 121.216 1303 128.208 1285.77 128.208H1264.24C1247.01 128.208 1238.41 121.216 1238.41 107.252V62.9999H1262.08V104.935C1262.08 106.486 1262.81 107.273 1264.24 107.273H1285.77C1287.21 107.273 1287.93 106.486 1287.93 104.935V62.9999Z" fill="#FFF4BE"/>
<path d="M1315.91 62.9999H1363.27C1380.5 62.9999 1389.1 69.9926 1389.1 83.9568V93.2662C1389.1 97.3683 1388.37 100.854 1386.9 103.745C1388.37 106.635 1389.1 110.121 1389.1 114.223V128.187H1365.43V116.54C1365.43 114.988 1364.7 114.202 1363.27 114.202H1337.44V128.166H1315.91V62.9999ZM1337.44 93.2662H1363.27C1364.7 93.2662 1365.43 92.4798 1365.43 90.9282V86.2735C1365.43 84.7219 1364.7 83.9355 1363.27 83.9355H1337.44V93.2662Z" fill="#FFF4BE"/>
<path d="M1414.93 88.6328H1453.67V102.597H1414.93V107.252H1462.3V128.208H1393.4V62.9999H1462.3V83.9568H1414.93V88.6328Z" fill="#FFF4BE"/>
<path d="M116.235 158.411C133.463 158.411 142.067 165.404 142.067 179.368V181.706H118.396C118.396 180.154 117.669 179.368 116.235 179.368H94.7048C93.2708 179.368 92.544 180.154 92.544 181.706C92.544 183.257 93.2511 184.044 94.7048 184.044H116.235C133.463 184.044 142.067 188.698 142.067 198.008V202.663C142.067 216.648 133.463 223.619 116.235 223.619H94.7048C77.4768 223.619 68.8727 216.627 68.8727 202.663V200.325H92.544C92.544 201.876 93.2511 202.663 94.7048 202.663H116.235C117.669 202.663 118.396 201.876 118.396 200.325C118.396 198.773 117.669 197.987 116.235 197.987H94.7048C77.4768 197.987 68.8727 193.332 68.8727 184.023V179.368C68.8727 165.404 77.4768 158.411 94.7048 158.411H116.235Z" fill="#FFF4BE"/>
<path d="M146.369 158.411H193.731C210.959 158.411 219.563 165.404 219.563 179.368V188.677C219.563 202.641 210.959 209.634 193.731 209.634H167.899V223.619H146.369V158.411ZM167.899 188.677H193.731C195.165 188.677 195.892 187.891 195.892 186.339V181.685C195.892 180.133 195.165 179.347 193.731 179.347H167.899V188.677Z" fill="#FFF4BE"/>
<path d="M249.697 158.411H271.227C288.455 158.411 297.06 165.404 297.06 179.368V202.663C297.06 216.648 288.455 223.619 271.227 223.619H249.697C232.469 223.619 223.865 216.627 223.865 202.663V179.368C223.865 165.404 232.469 158.411 249.697 158.411ZM271.227 179.368H249.697C248.263 179.368 247.537 180.154 247.537 181.706V200.346C247.537 201.897 248.244 202.684 249.697 202.684H271.227C272.662 202.684 273.388 201.897 273.388 200.346V181.706C273.388 180.154 272.662 179.368 271.227 179.368Z" fill="#FFF4BE"/>
<path d="M301.362 158.411H348.724C365.952 158.411 374.556 165.404 374.556 179.368V188.677C374.556 192.779 373.829 196.265 372.356 199.156C373.829 202.046 374.556 205.532 374.556 209.634V223.619H350.885V211.972C350.885 210.42 350.158 209.634 348.724 209.634H322.892V223.619H301.362V158.411ZM322.892 188.677H348.724C350.158 188.677 350.885 187.891 350.885 186.339V181.685C350.885 180.133 350.158 179.347 348.724 179.347H322.892V188.677Z" fill="#FFF4BE"/>
<path d="M424.059 179.368V223.619H402.529V179.368H378.858V158.411H447.731V179.368H424.059Z" fill="#FFF4BE"/>
<path d="M473.563 158.411V223.619H452.033V158.411H473.563Z" fill="#FFF4BE"/>
<path d="M535.992 158.411H561.824L527.388 223.619H503.717L469.281 158.411H495.113L515.562 200.325L536.012 158.411H535.992Z" fill="#FFF4BE"/>
<path d="M579.052 184.022H617.791V197.987H579.052V202.641H626.414V223.598H557.522V158.39H626.414V179.347H579.052V184.022Z" fill="#FFF4BE"/>
<path d="M702.084 158.411H725.755V202.663C725.755 216.648 717.151 223.619 699.923 223.619H678.393C661.165 223.619 652.561 216.627 652.561 202.663V158.411H676.232V200.325C676.232 201.876 676.959 202.663 678.393 202.663H699.923C701.357 202.663 702.084 201.876 702.084 200.325V158.411Z" fill="#FFF4BE"/>
<path d="M730.077 223.619V158.411H751.607V202.663H798.969V223.619H730.077Z" fill="#FFF4BE"/>
<path d="M848.453 179.368V223.619H826.923V179.368H803.252V158.411H872.144V179.368H848.453Z" fill="#FFF4BE"/>
<path d="M897.976 158.411V223.619H876.446V158.411H897.976Z" fill="#FFF4BE"/>
<path d="M923.808 188.677V223.619H902.278V158.411H930.271L949.64 191.015L969.009 158.411H997.002V223.619H975.472V188.677L956.103 223.619H943.177L923.808 188.677Z" fill="#FFF4BE"/>
<path d="M1022.81 184.022H1061.55V197.987H1022.81V202.641H1070.18V223.598H1001.28V158.39H1070.18V179.347H1022.81V184.022Z" fill="#FFF4BE"/>
<path d="M1087.74 223.619L1122.18 158.411H1145.85L1180.28 223.619H1154.45L1150.15 214.31H1117.85L1113.55 223.619H1087.72H1087.74ZM1139.4 193.332L1134.02 181.685L1128.64 193.332H1139.4Z" fill="#FFF4BE"/>
<path d="M1234.11 158.411H1259.94L1225.5 223.619H1201.83L1167.4 158.411H1193.23L1213.68 200.325L1234.13 158.411H1234.11Z" fill="#FFF4BE"/>
<path d="M1277.17 184.022H1315.91V197.987H1277.17V202.641H1324.53V223.598H1255.64V158.39H1324.53V179.347H1277.17V184.022Z" fill="#FFF4BE"/>
<path d="M1376.18 158.411C1393.4 158.411 1402.01 165.404 1402.01 179.368V184.022H1378.34V181.684C1378.34 180.133 1377.61 179.347 1376.18 179.347H1354.65C1353.21 179.347 1352.48 180.133 1352.48 181.684V200.325C1352.48 201.876 1353.21 202.663 1354.65 202.663H1376.18C1377.61 202.663 1378.34 201.876 1378.34 200.325V197.987H1402.01V202.641C1402.01 216.627 1393.4 223.598 1376.18 223.598H1354.65C1337.42 223.598 1328.81 216.605 1328.81 202.641V179.347C1328.81 165.382 1337.42 158.39 1354.65 158.39H1376.18V158.411Z" fill="#FFF4BE"/>
<path d="M432.12 397.528H424.784L423.608 401H418.596L425.708 381.344H431.252L438.364 401H433.296L432.12 397.528ZM430.888 393.832L428.452 386.636L426.044 393.832H430.888Z" fill="white"/>
<path d="M445.232 381.344V393.104C445.232 394.28 445.522 395.185 446.1 395.82C446.679 396.455 447.528 396.772 448.648 396.772C449.768 396.772 450.627 396.455 451.224 395.82C451.822 395.185 452.12 394.28 452.12 393.104V381.344H456.908V393.076C456.908 394.831 456.535 396.315 455.788 397.528C455.042 398.741 454.034 399.656 452.764 400.272C451.514 400.888 450.114 401.196 448.564 401.196C447.015 401.196 445.624 400.897 444.392 400.3C443.179 399.684 442.218 398.769 441.508 397.556C440.799 396.324 440.444 394.831 440.444 393.076V381.344H445.232Z" fill="white"/>
<path d="M479.252 387.56C478.897 386.907 478.384 386.412 477.712 386.076C477.059 385.721 476.284 385.544 475.388 385.544C473.839 385.544 472.597 386.057 471.664 387.084C470.731 388.092 470.264 389.445 470.264 391.144C470.264 392.955 470.749 394.373 471.72 395.4C472.709 396.408 474.063 396.912 475.78 396.912C476.956 396.912 477.945 396.613 478.748 396.016C479.569 395.419 480.167 394.56 480.54 393.44H474.464V389.912H484.88V394.364C484.525 395.559 483.919 396.669 483.06 397.696C482.22 398.723 481.147 399.553 479.84 400.188C478.533 400.823 477.059 401.14 475.416 401.14C473.475 401.14 471.739 400.72 470.208 399.88C468.696 399.021 467.511 397.836 466.652 396.324C465.812 394.812 465.392 393.085 465.392 391.144C465.392 389.203 465.812 387.476 466.652 385.964C467.511 384.433 468.696 383.248 470.208 382.408C471.72 381.549 473.447 381.12 475.388 381.12C477.74 381.12 479.719 381.689 481.324 382.828C482.948 383.967 484.021 385.544 484.544 387.56H479.252Z" fill="white"/>
<path d="M504.388 381.344L497.584 394.504V401H492.796V394.504L485.992 381.344H491.424L495.232 389.576L499.012 381.344H504.388Z" fill="white"/>
<path d="M528.577 381.344V401H523.789V389.212L519.393 401H515.529L511.105 389.184V401H506.317V381.344H511.973L517.489 394.952L522.949 381.344H528.577Z" fill="white"/>
<path d="M549.604 401H544.816L536.808 388.876V401H532.02V381.344H536.808L544.816 393.524V381.344H549.604V401Z" fill="white"/>
<path d="M565.311 397.528H557.975L556.799 401H551.787L558.899 381.344H564.443L571.555 401H566.487L565.311 397.528ZM564.079 393.832L561.643 386.636L559.235 393.832H564.079Z" fill="white"/>
<path d="M580.832 401.196C579.394 401.196 578.106 400.963 576.968 400.496C575.829 400.029 574.914 399.339 574.224 398.424C573.552 397.509 573.197 396.408 573.16 395.12H578.256C578.33 395.848 578.582 396.408 579.012 396.8C579.441 397.173 580.001 397.36 580.692 397.36C581.401 397.36 581.961 397.201 582.372 396.884C582.782 396.548 582.988 396.091 582.988 395.512C582.988 395.027 582.82 394.625 582.484 394.308C582.166 393.991 581.765 393.729 581.28 393.524C580.813 393.319 580.141 393.085 579.264 392.824C577.994 392.432 576.958 392.04 576.156 391.648C575.353 391.256 574.662 390.677 574.084 389.912C573.505 389.147 573.216 388.148 573.216 386.916C573.216 385.087 573.878 383.659 575.204 382.632C576.529 381.587 578.256 381.064 580.384 381.064C582.549 381.064 584.294 381.587 585.62 382.632C586.945 383.659 587.654 385.096 587.748 386.944H582.568C582.53 386.309 582.297 385.815 581.868 385.46C581.438 385.087 580.888 384.9 580.216 384.9C579.637 384.9 579.17 385.059 578.816 385.376C578.461 385.675 578.284 386.113 578.284 386.692C578.284 387.327 578.582 387.821 579.18 388.176C579.777 388.531 580.71 388.913 581.98 389.324C583.249 389.753 584.276 390.164 585.06 390.556C585.862 390.948 586.553 391.517 587.132 392.264C587.71 393.011 588 393.972 588 395.148C588 396.268 587.71 397.285 587.132 398.2C586.572 399.115 585.75 399.843 584.668 400.384C583.585 400.925 582.306 401.196 580.832 401.196Z" fill="white"/>
<path d="M595.734 385.18V389.156H602.146V392.852H595.734V397.164H602.986V401H590.946V381.344H602.986V385.18H595.734Z" fill="white"/>
<path d="M627.008 387.672C627.008 388.811 626.747 389.856 626.224 390.808C625.702 391.741 624.899 392.497 623.816 393.076C622.733 393.655 621.39 393.944 619.784 393.944H616.816V401H612.028V381.344H619.784C621.352 381.344 622.678 381.615 623.76 382.156C624.843 382.697 625.655 383.444 626.196 384.396C626.738 385.348 627.008 386.44 627.008 387.672ZM619.42 390.136C620.335 390.136 621.016 389.921 621.464 389.492C621.912 389.063 622.136 388.456 622.136 387.672C622.136 386.888 621.912 386.281 621.464 385.852C621.016 385.423 620.335 385.208 619.42 385.208H616.816V390.136H619.42Z" fill="white"/>
<path d="M634.289 397.304H640.561V401H629.501V381.344H634.289V397.304Z" fill="white"/>
<path d="M655.081 397.528H647.745L646.569 401H641.557L648.669 381.344H654.213L661.325 401H656.257L655.081 397.528ZM653.849 393.832L651.413 386.636L649.005 393.832H653.849Z" fill="white"/>
<path d="M677.629 381.344V385.18H672.421V401H667.633V385.18H662.425V381.344H677.629Z" fill="white"/>
<path d="M684.82 385.18V389.156H691.232V392.852H684.82V397.164H692.072V401H680.032V381.344H692.072V385.18H684.82Z" fill="white"/>
<path d="M707.417 397.528H700.081L698.905 401H693.893L701.005 381.344H706.549L713.661 401H708.593L707.417 397.528ZM706.185 393.832L703.749 386.636L701.341 393.832H706.185Z" fill="white"/>
<path d="M720.529 381.344V393.104C720.529 394.28 720.818 395.185 721.397 395.82C721.976 396.455 722.825 396.772 723.945 396.772C725.065 396.772 725.924 396.455 726.521 395.82C727.118 395.185 727.417 394.28 727.417 393.104V381.344H732.205V393.076C732.205 394.831 731.832 396.315 731.085 397.528C730.338 398.741 729.33 399.656 728.061 400.272C726.81 400.888 725.41 401.196 723.861 401.196C722.312 401.196 720.921 400.897 719.689 400.3C718.476 399.684 717.514 398.769 716.805 397.556C716.096 396.324 715.741 394.831 715.741 393.076V381.344H720.529Z" fill="white"/>
<path d="M740.689 391.144C740.689 389.203 741.109 387.476 741.949 385.964C742.789 384.433 743.956 383.248 745.449 382.408C746.961 381.549 748.669 381.12 750.573 381.12C752.906 381.12 754.903 381.736 756.565 382.968C758.226 384.2 759.337 385.88 759.897 388.008H754.633C754.241 387.187 753.681 386.561 752.953 386.132C752.243 385.703 751.432 385.488 750.517 385.488C749.042 385.488 747.848 386.001 746.933 387.028C746.018 388.055 745.561 389.427 745.561 391.144C745.561 392.861 746.018 394.233 746.933 395.26C747.848 396.287 749.042 396.8 750.517 396.8C751.432 396.8 752.243 396.585 752.953 396.156C753.681 395.727 754.241 395.101 754.633 394.28H759.897C759.337 396.408 758.226 398.088 756.565 399.32C754.903 400.533 752.906 401.14 750.573 401.14C748.669 401.14 746.961 400.72 745.449 399.88C743.956 399.021 742.789 397.836 741.949 396.324C741.109 394.812 740.689 393.085 740.689 391.144Z" fill="white"/>
<path d="M775.065 397.528H767.729L766.553 401H761.541L768.653 381.344H774.197L781.309 401H776.241L775.065 397.528ZM773.833 393.832L771.397 386.636L768.989 393.832H773.833Z" fill="white"/>
<path d="M788.261 381.344V401H783.474V381.344H788.261Z" fill="white"/>
<path d="M796.519 397.304H802.791V401H791.731V381.344H796.519V397.304Z" fill="white"/>
<path d="M809.863 397.304H816.135V401H805.075V381.344H809.863V397.304Z" fill="white"/>
<path d="M827.715 401.196C825.867 401.196 824.168 400.767 822.619 399.908C821.088 399.049 819.865 397.855 818.951 396.324C818.055 394.775 817.607 393.039 817.607 391.116C817.607 389.193 818.055 387.467 818.951 385.936C819.865 384.405 821.088 383.211 822.619 382.352C824.168 381.493 825.867 381.064 827.715 381.064C829.563 381.064 831.252 381.493 832.783 382.352C834.332 383.211 835.545 384.405 836.423 385.936C837.319 387.467 837.767 389.193 837.767 391.116C837.767 393.039 837.319 394.775 836.423 396.324C835.527 397.855 834.313 399.049 832.783 399.908C831.252 400.767 829.563 401.196 827.715 401.196ZM827.715 396.828C829.283 396.828 830.533 396.305 831.467 395.26C832.419 394.215 832.895 392.833 832.895 391.116C832.895 389.38 832.419 387.999 831.467 386.972C830.533 385.927 829.283 385.404 827.715 385.404C826.128 385.404 824.859 385.917 823.907 386.944C822.973 387.971 822.507 389.361 822.507 391.116C822.507 392.852 822.973 394.243 823.907 395.288C824.859 396.315 826.128 396.828 827.715 396.828Z" fill="white"/>
<path d="M845.135 381.344V393.104C845.135 394.28 845.424 395.185 846.003 395.82C846.581 396.455 847.431 396.772 848.551 396.772C849.671 396.772 850.529 396.455 851.127 395.82C851.724 395.185 852.023 394.28 852.023 393.104V381.344H856.811V393.076C856.811 394.831 856.437 396.315 855.69 397.528C854.944 398.741 853.936 399.656 852.667 400.272C851.416 400.888 850.016 401.196 848.466 401.196C846.917 401.196 845.526 400.897 844.294 400.3C843.081 399.684 842.12 398.769 841.411 397.556C840.701 396.324 840.346 394.831 840.346 393.076V381.344H845.135Z" fill="white"/>
<path d="M865.325 396.576L862.217 404.612H859.165L860.789 396.576H865.325Z" fill="white"/>
<path d="M881.257 401.196C879.82 401.196 878.532 400.963 877.393 400.496C876.255 400.029 875.34 399.339 874.649 398.424C873.977 397.509 873.623 396.408 873.585 395.12H878.681C878.756 395.848 879.008 396.408 879.437 396.8C879.867 397.173 880.427 397.36 881.117 397.36C881.827 397.36 882.387 397.201 882.797 396.884C883.208 396.548 883.413 396.091 883.413 395.512C883.413 395.027 883.245 394.625 882.909 394.308C882.592 393.991 882.191 393.729 881.705 393.524C881.239 393.319 880.567 393.085 879.689 392.824C878.42 392.432 877.384 392.04 876.581 391.648C875.779 391.256 875.088 390.677 874.509 389.912C873.931 389.147 873.641 388.148 873.641 386.916C873.641 385.087 874.304 383.659 875.629 382.632C876.955 381.587 878.681 381.064 880.809 381.064C882.975 381.064 884.72 381.587 886.045 382.632C887.371 383.659 888.08 385.096 888.173 386.944H882.993C882.956 386.309 882.723 385.815 882.293 385.46C881.864 385.087 881.313 384.9 880.641 384.9C880.063 384.9 879.596 385.059 879.241 385.376C878.887 385.675 878.709 386.113 878.709 386.692C878.709 387.327 879.008 387.821 879.605 388.176C880.203 388.531 881.136 388.913 882.405 389.324C883.675 389.753 884.701 390.164 885.485 390.556C886.288 390.948 886.979 391.517 887.557 392.264C888.136 393.011 888.425 393.972 888.425 395.148C888.425 396.268 888.136 397.285 887.557 398.2C886.997 399.115 886.176 399.843 885.093 400.384C884.011 400.925 882.732 401.196 881.257 401.196Z" fill="white"/>
<path d="M903.608 397.528H896.272L895.096 401H890.084L897.196 381.344H902.74L909.852 401H904.784L903.608 397.528ZM902.376 393.832L899.94 386.636L897.532 393.832H902.376Z" fill="white"/>
<path d="M916.804 381.344V401H912.016V381.344H916.804Z" fill="white"/>
<path d="M937.858 401H933.07L925.062 388.876V401H920.274V381.344H925.062L933.07 393.524V381.344H937.858V401Z" fill="white"/>
<path d="M955.469 381.344V385.18H950.261V401H945.473V385.18H940.265V381.344H955.469Z" fill="white"/>
<path d="M969.912 389.184V393.16H957.592V389.184H969.912Z" fill="white"/>
<path d="M989.094 387.672C989.094 388.811 988.833 389.856 988.31 390.808C987.787 391.741 986.985 392.497 985.902 393.076C984.819 393.655 983.475 393.944 981.87 393.944H978.902V401H974.114V381.344H981.87C983.438 381.344 984.763 381.615 985.846 382.156C986.929 382.697 987.741 383.444 988.282 384.396C988.823 385.348 989.094 386.44 989.094 387.672ZM981.506 390.136C982.421 390.136 983.102 389.921 983.55 389.492C983.998 389.063 984.222 388.456 984.222 387.672C984.222 386.888 983.998 386.281 983.55 385.852C983.102 385.423 982.421 385.208 981.506 385.208H978.902V390.136H981.506Z" fill="white"/>
<path d="M1003.82 397.528H996.487L995.311 401H990.299L997.411 381.344H1002.95L1010.07 401H1005L1003.82 397.528ZM1002.59 393.832L1000.15 386.636L997.747 393.832H1002.59Z" fill="white"/>
<path d="M1016.94 381.344V393.104C1016.94 394.28 1017.22 395.185 1017.8 395.82C1018.38 396.455 1019.23 396.772 1020.35 396.772C1021.47 396.772 1022.33 396.455 1022.93 395.82C1023.52 395.185 1023.82 394.28 1023.82 393.104V381.344H1028.61V393.076C1028.61 394.831 1028.24 396.315 1027.49 397.528C1026.74 398.741 1025.74 399.656 1024.47 400.272C1023.22 400.888 1021.82 401.196 1020.27 401.196C1018.72 401.196 1017.33 400.897 1016.1 400.3C1014.88 399.684 1013.92 398.769 1013.21 397.556C1012.5 396.324 1012.15 394.831 1012.15 393.076V381.344H1016.94Z" fill="white"/>
<path d="M1036.76 397.304H1043.03V401H1031.97V381.344H1036.76V397.304Z" fill="white"/>
</svg>
