<svg width="358" height="158" viewBox="0 0 358 158" fill="none" xmlns="http://www.w3.org/2000/svg">
<path d="M7.984 150.016H3.792L3.12 152H0.256L4.32 140.768H7.488L11.552 152H8.656L7.984 150.016ZM7.28 147.904L5.888 143.792L4.512 147.904H7.28ZM15.4769 140.768V147.488C15.4769 148.16 15.6422 148.677 15.9729 149.04C16.3035 149.403 16.7889 149.584 17.4289 149.584C18.0689 149.584 18.5595 149.403 18.9009 149.04C19.2422 148.677 19.4129 148.16 19.4129 147.488V140.768H22.1489V147.472C22.1489 148.475 21.9355 149.323 21.5089 150.016C21.0822 150.709 20.5062 151.232 19.7809 151.584C19.0662 151.936 18.2662 152.112 17.3809 152.112C16.4955 152.112 15.7009 151.941 14.9969 151.6C14.3035 151.248 13.7542 150.725 13.3489 150.032C12.9435 149.328 12.7409 148.475 12.7409 147.472V140.768H15.4769ZM34.9167 144.32C34.7141 143.947 34.4208 143.664 34.0368 143.472C33.6634 143.269 33.2208 143.168 32.7088 143.168C31.8234 143.168 31.1141 143.461 30.5807 144.048C30.0474 144.624 29.7808 145.397 29.7808 146.368C29.7808 147.403 30.0581 148.213 30.6128 148.8C31.1781 149.376 31.9514 149.664 32.9328 149.664C33.6048 149.664 34.1701 149.493 34.6288 149.152C35.0981 148.811 35.4394 148.32 35.6528 147.68H32.1808V145.664H38.1328V148.208C37.9301 148.891 37.5834 149.525 37.0928 150.112C36.6128 150.699 35.9994 151.173 35.2528 151.536C34.5061 151.899 33.6634 152.08 32.7248 152.08C31.6154 152.08 30.6234 151.84 29.7488 151.36C28.8848 150.869 28.2074 150.192 27.7168 149.328C27.2368 148.464 26.9967 147.477 26.9967 146.368C26.9967 145.259 27.2368 144.272 27.7168 143.408C28.2074 142.533 28.8848 141.856 29.7488 141.376C30.6128 140.885 31.5994 140.64 32.7088 140.64C34.0528 140.64 35.1834 140.965 36.1008 141.616C37.0288 142.267 37.6421 143.168 37.9408 144.32H34.9167ZM49.2803 140.768L45.3923 148.288V152H42.6562V148.288L38.7683 140.768H41.8723L44.0483 145.472L46.2083 140.768H49.2803ZM63.1026 140.768V152H60.3666V145.264L57.8546 152H55.6466L53.1186 145.248V152H50.3826V140.768H53.6146L56.7666 148.544L59.8866 140.768H63.1026ZM75.1181 152H72.3821L67.8061 145.072V152H65.0701V140.768H67.8061L72.3821 147.728V140.768H75.1181V152ZM84.0934 150.016H79.9014L79.2294 152H76.3654L80.4294 140.768H83.5974L87.6614 152H84.7654L84.0934 150.016ZM83.3894 147.904L81.9974 143.792L80.6214 147.904H83.3894ZM92.9623 152.112C92.1409 152.112 91.4049 151.979 90.7543 151.712C90.1036 151.445 89.5809 151.051 89.1863 150.528C88.8023 150.005 88.5996 149.376 88.5783 148.64H91.4903C91.5329 149.056 91.6769 149.376 91.9223 149.6C92.1676 149.813 92.4876 149.92 92.8823 149.92C93.2876 149.92 93.6076 149.829 93.8423 149.648C94.0769 149.456 94.1943 149.195 94.1943 148.864C94.1943 148.587 94.0983 148.357 93.9063 148.176C93.7249 147.995 93.4956 147.845 93.2183 147.728C92.9516 147.611 92.5676 147.477 92.0663 147.328C91.3409 147.104 90.7489 146.88 90.2903 146.656C89.8316 146.432 89.4369 146.101 89.1063 145.664C88.7756 145.227 88.6103 144.656 88.6103 143.952C88.6103 142.907 88.9889 142.091 89.7463 141.504C90.5036 140.907 91.4903 140.608 92.7063 140.608C93.9436 140.608 94.9409 140.907 95.6983 141.504C96.4556 142.091 96.8609 142.912 96.9143 143.968H93.9543C93.9329 143.605 93.7996 143.323 93.5543 143.12C93.3089 142.907 92.9943 142.8 92.6102 142.8C92.2796 142.8 92.0129 142.891 91.8103 143.072C91.6076 143.243 91.5063 143.493 91.5063 143.824C91.5063 144.187 91.6769 144.469 92.0182 144.672C92.3596 144.875 92.8929 145.093 93.6183 145.328C94.3436 145.573 94.9303 145.808 95.3783 146.032C95.8369 146.256 96.2316 146.581 96.5623 147.008C96.8929 147.435 97.0583 147.984 97.0583 148.656C97.0583 149.296 96.8929 149.877 96.5623 150.4C96.2423 150.923 95.7729 151.339 95.1543 151.648C94.5356 151.957 93.8049 152.112 92.9623 152.112ZM101.478 142.96V145.232H105.142V147.344H101.478V149.808H105.622V152H98.742V140.768H105.622V142.96H101.478ZM119.349 144.384C119.349 145.035 119.2 145.632 118.901 146.176C118.602 146.709 118.144 147.141 117.525 147.472C116.906 147.803 116.138 147.968 115.221 147.968H113.525V152H110.789V140.768H115.221C116.117 140.768 116.874 140.923 117.493 141.232C118.112 141.541 118.576 141.968 118.885 142.512C119.194 143.056 119.349 143.68 119.349 144.384ZM115.013 145.792C115.536 145.792 115.925 145.669 116.181 145.424C116.437 145.179 116.565 144.832 116.565 144.384C116.565 143.936 116.437 143.589 116.181 143.344C115.925 143.099 115.536 142.976 115.013 142.976H113.525V145.792H115.013ZM123.509 149.888H127.093V152H120.773V140.768H123.509V149.888ZM135.39 150.016H131.198L130.526 152H127.662L131.726 140.768H134.894L138.958 152H136.062L135.39 150.016ZM134.686 147.904L133.294 143.792L131.918 147.904H134.686ZM148.275 140.768V142.96H145.299V152H142.563V142.96H139.587V140.768H148.275ZM152.384 142.96V145.232H156.048V147.344H152.384V149.808H156.528V152H149.648V140.768H156.528V142.96H152.384ZM165.297 150.016H161.105L160.433 152H157.569L161.633 140.768H164.801L168.865 152H165.969L165.297 150.016ZM164.593 147.904L163.201 143.792L161.825 147.904H164.593ZM172.789 140.768V147.488C172.789 148.16 172.955 148.677 173.285 149.04C173.616 149.403 174.101 149.584 174.741 149.584C175.381 149.584 175.872 149.403 176.213 149.04C176.555 148.677 176.725 148.16 176.725 147.488V140.768H179.461V147.472C179.461 148.475 179.248 149.323 178.821 150.016C178.395 150.709 177.819 151.232 177.093 151.584C176.379 151.936 175.579 152.112 174.693 152.112C173.808 152.112 173.013 151.941 172.309 151.6C171.616 151.248 171.067 150.725 170.661 150.032C170.256 149.328 170.053 148.475 170.053 147.472V140.768H172.789ZM184.309 146.368C184.309 145.259 184.549 144.272 185.029 143.408C185.509 142.533 186.176 141.856 187.029 141.376C187.893 140.885 188.869 140.64 189.957 140.64C191.291 140.64 192.432 140.992 193.381 141.696C194.331 142.4 194.965 143.36 195.285 144.576H192.277C192.053 144.107 191.733 143.749 191.317 143.504C190.912 143.259 190.448 143.136 189.925 143.136C189.083 143.136 188.4 143.429 187.877 144.016C187.355 144.603 187.093 145.387 187.093 146.368C187.093 147.349 187.355 148.133 187.877 148.72C188.4 149.307 189.083 149.6 189.925 149.6C190.448 149.6 190.912 149.477 191.317 149.232C191.733 148.987 192.053 148.629 192.277 148.16H195.285C194.965 149.376 194.331 150.336 193.381 151.04C192.432 151.733 191.291 152.08 189.957 152.08C188.869 152.08 187.893 151.84 187.029 151.36C186.176 150.869 185.509 150.192 185.029 149.328C184.549 148.464 184.309 147.477 184.309 146.368ZM203.953 150.016H199.761L199.089 152H196.225L200.289 140.768H203.457L207.521 152H204.625L203.953 150.016ZM203.249 147.904L201.857 143.792L200.481 147.904H203.249ZM211.494 140.768V152H208.758V140.768H211.494ZM216.212 149.888H219.796V152H213.476V140.768H216.212V149.888ZM223.837 149.888H227.421V152H221.101V140.768H223.837V149.888ZM234.038 152.112C232.982 152.112 232.012 151.867 231.126 151.376C230.252 150.885 229.553 150.203 229.03 149.328C228.518 148.443 228.262 147.451 228.262 146.352C228.262 145.253 228.518 144.267 229.03 143.392C229.553 142.517 230.252 141.835 231.126 141.344C232.012 140.853 232.982 140.608 234.038 140.608C235.094 140.608 236.06 140.853 236.934 141.344C237.82 141.835 238.513 142.517 239.014 143.392C239.526 144.267 239.782 145.253 239.782 146.352C239.782 147.451 239.526 148.443 239.014 149.328C238.502 150.203 237.809 150.885 236.934 151.376C236.06 151.867 235.094 152.112 234.038 152.112ZM234.038 149.616C234.934 149.616 235.649 149.317 236.182 148.72C236.726 148.123 236.998 147.333 236.998 146.352C236.998 145.36 236.726 144.571 236.182 143.984C235.649 143.387 234.934 143.088 234.038 143.088C233.132 143.088 232.406 143.381 231.862 143.968C231.329 144.555 231.062 145.349 231.062 146.352C231.062 147.344 231.329 148.139 231.862 148.736C232.406 149.323 233.132 149.616 234.038 149.616ZM243.993 140.768V147.488C243.993 148.16 244.158 148.677 244.489 149.04C244.819 149.403 245.305 149.584 245.945 149.584C246.585 149.584 247.075 149.403 247.417 149.04C247.758 148.677 247.929 148.16 247.929 147.488V140.768H250.665V147.472C250.665 148.475 250.451 149.323 250.025 150.016C249.598 150.709 249.022 151.232 248.297 151.584C247.582 151.936 246.782 152.112 245.897 152.112C245.011 152.112 244.217 151.941 243.513 151.6C242.819 151.248 242.27 150.725 241.865 150.032C241.459 149.328 241.257 148.475 241.257 147.472V140.768H243.993ZM255.53 149.472L253.754 154.064H252.01L252.938 149.472H255.53ZM264.634 152.112C263.813 152.112 263.077 151.979 262.426 151.712C261.775 151.445 261.253 151.051 260.858 150.528C260.474 150.005 260.271 149.376 260.25 148.64H263.162C263.205 149.056 263.349 149.376 263.594 149.6C263.839 149.813 264.159 149.92 264.554 149.92C264.959 149.92 265.279 149.829 265.514 149.648C265.749 149.456 265.866 149.195 265.866 148.864C265.866 148.587 265.77 148.357 265.578 148.176C265.397 147.995 265.167 147.845 264.89 147.728C264.623 147.611 264.239 147.477 263.738 147.328C263.013 147.104 262.421 146.88 261.962 146.656C261.503 146.432 261.109 146.101 260.778 145.664C260.447 145.227 260.282 144.656 260.282 143.952C260.282 142.907 260.661 142.091 261.418 141.504C262.175 140.907 263.162 140.608 264.378 140.608C265.615 140.608 266.613 140.907 267.37 141.504C268.127 142.091 268.533 142.912 268.586 143.968H265.626C265.605 143.605 265.471 143.323 265.226 143.12C264.981 142.907 264.666 142.8 264.282 142.8C263.951 142.8 263.685 142.891 263.482 143.072C263.279 143.243 263.178 143.493 263.178 143.824C263.178 144.187 263.349 144.469 263.69 144.672C264.031 144.875 264.565 145.093 265.29 145.328C266.015 145.573 266.602 145.808 267.05 146.032C267.509 146.256 267.903 146.581 268.234 147.008C268.565 147.435 268.73 147.984 268.73 148.656C268.73 149.296 268.565 149.877 268.234 150.4C267.914 150.923 267.445 151.339 266.826 151.648C266.207 151.957 265.477 152.112 264.634 152.112ZM277.406 150.016H273.214L272.542 152H269.678L273.742 140.768H276.91L280.974 152H278.078L277.406 150.016ZM276.702 147.904L275.31 143.792L273.934 147.904H276.702ZM284.947 140.768V152H282.211V140.768H284.947ZM296.978 152H294.242L289.666 145.072V152H286.93V140.768H289.666L294.242 147.728V140.768H296.978V152ZM307.041 140.768V142.96H304.065V152H301.329V142.96H298.353V140.768H307.041ZM315.294 145.248V147.52H308.254V145.248H315.294ZM326.255 144.384C326.255 145.035 326.106 145.632 325.807 146.176C325.508 146.709 325.05 147.141 324.431 147.472C323.812 147.803 323.044 147.968 322.127 147.968H320.431V152H317.695V140.768H322.127C323.023 140.768 323.78 140.923 324.399 141.232C325.018 141.541 325.482 141.968 325.791 142.512C326.1 143.056 326.255 143.68 326.255 144.384ZM321.919 145.792C322.442 145.792 322.831 145.669 323.087 145.424C323.343 145.179 323.471 144.832 323.471 144.384C323.471 143.936 323.343 143.589 323.087 143.344C322.831 143.099 322.442 142.976 321.919 142.976H320.431V145.792H321.919ZM334.672 150.016H330.48L329.808 152H326.944L331.008 140.768H334.176L338.24 152H335.344L334.672 150.016ZM333.968 147.904L332.576 143.792L331.2 147.904H333.968ZM342.164 140.768V147.488C342.164 148.16 342.33 148.677 342.66 149.04C342.991 149.403 343.476 149.584 344.116 149.584C344.756 149.584 345.247 149.403 345.588 149.04C345.93 148.677 346.1 148.16 346.1 147.488V140.768H348.836V147.472C348.836 148.475 348.623 149.323 348.196 150.016C347.77 150.709 347.194 151.232 346.468 151.584C345.754 151.936 344.954 152.112 344.068 152.112C343.183 152.112 342.388 151.941 341.684 151.6C340.991 151.248 340.442 150.725 340.036 150.032C339.631 149.328 339.428 148.475 339.428 147.472V140.768H342.164ZM353.494 149.888H357.078V152H350.758V140.768H353.494V149.888Z" fill="white"/>
<path d="M92.702 17.534C93.11 17.21 93.296 17.06 93.26 17.084C94.436 16.112 95.36 15.314 96.032 14.69C96.716 14.066 97.292 13.412 97.76 12.728C98.228 12.044 98.462 11.378 98.462 10.73C98.462 10.238 98.348 9.854 98.12 9.578C97.892 9.302 97.55 9.164 97.094 9.164C96.638 9.164 96.278 9.338 96.014 9.686C95.762 10.022 95.636 10.502 95.636 11.126H92.666C92.69 10.106 92.906 9.254 93.314 8.57C93.734 7.886 94.28 7.382 94.952 7.058C95.636 6.734 96.392 6.572 97.22 6.572C98.648 6.572 99.722 6.938 100.442 7.67C101.174 8.402 101.54 9.356 101.54 10.532C101.54 11.816 101.102 13.01 100.226 14.114C99.35 15.206 98.234 16.274 96.878 17.318H101.738V19.82H92.702V17.534ZM109.591 10.406C109.495 9.962 109.327 9.632 109.087 9.416C108.847 9.188 108.505 9.074 108.061 9.074C107.377 9.074 106.885 9.374 106.585 9.974C106.285 10.562 106.129 11.498 106.117 12.782C106.381 12.362 106.759 12.032 107.251 11.792C107.755 11.552 108.307 11.432 108.907 11.432C110.083 11.432 111.025 11.804 111.733 12.548C112.453 13.292 112.813 14.33 112.813 15.662C112.813 16.538 112.633 17.306 112.273 17.966C111.925 18.626 111.409 19.142 110.725 19.514C110.053 19.886 109.255 20.072 108.331 20.072C106.483 20.072 105.199 19.496 104.479 18.344C103.759 17.18 103.399 15.512 103.399 13.34C103.399 11.06 103.777 9.368 104.533 8.264C105.301 7.148 106.525 6.59 108.205 6.59C109.105 6.59 109.861 6.77 110.473 7.13C111.097 7.478 111.565 7.94 111.877 8.516C112.201 9.092 112.393 9.722 112.453 10.406H109.591ZM108.169 13.862C107.653 13.862 107.221 14.018 106.873 14.33C106.537 14.63 106.369 15.062 106.369 15.626C106.369 16.202 106.525 16.652 106.837 16.976C107.161 17.3 107.617 17.462 108.205 17.462C108.733 17.462 109.147 17.306 109.447 16.994C109.759 16.67 109.915 16.232 109.915 15.68C109.915 15.116 109.765 14.672 109.465 14.348C109.165 14.024 108.733 13.862 108.169 13.862ZM129.979 20H126.901L121.753 12.206V20H118.675V7.364H121.753L126.901 15.194V7.364H129.979V20ZM138.186 20.126C136.998 20.126 135.906 19.85 134.91 19.298C133.926 18.746 133.14 17.978 132.552 16.994C131.976 15.998 131.688 14.882 131.688 13.646C131.688 12.41 131.976 11.3 132.552 10.316C133.14 9.332 133.926 8.564 134.91 8.012C135.906 7.46 136.998 7.184 138.186 7.184C139.374 7.184 140.46 7.46 141.444 8.012C142.44 8.564 143.22 9.332 143.784 10.316C144.36 11.3 144.648 12.41 144.648 13.646C144.648 14.882 144.36 15.998 143.784 16.994C143.208 17.978 142.428 18.746 141.444 19.298C140.46 19.85 139.374 20.126 138.186 20.126ZM138.186 17.318C139.194 17.318 139.998 16.982 140.598 16.31C141.21 15.638 141.516 14.75 141.516 13.646C141.516 12.53 141.21 11.642 140.598 10.982C139.998 10.31 139.194 9.974 138.186 9.974C137.166 9.974 136.35 10.304 135.738 10.964C135.138 11.624 134.838 12.518 134.838 13.646C134.838 14.762 135.138 15.656 135.738 16.328C136.35 16.988 137.166 17.318 138.186 17.318ZM158.222 7.364L153.74 20H149.888L145.406 7.364H148.682L151.814 16.904L154.964 7.364H158.222ZM162.587 9.83V12.386H166.709V14.762H162.587V17.534H167.249V20H159.509V7.364H167.249V9.83H162.587ZM183.557 7.364V20H180.479V12.422L177.653 20H175.169L172.325 12.404V20H169.247V7.364H172.883L176.429 16.112L179.939 7.364H183.557ZM193.42 13.52C194.152 13.676 194.74 14.042 195.184 14.618C195.628 15.182 195.85 15.83 195.85 16.562C195.85 17.618 195.478 18.458 194.734 19.082C194.002 19.694 192.976 20 191.656 20H185.77V7.364H191.458C192.742 7.364 193.744 7.658 194.464 8.246C195.196 8.834 195.562 9.632 195.562 10.64C195.562 11.384 195.364 12.002 194.968 12.494C194.584 12.986 194.068 13.328 193.42 13.52ZM188.848 12.476H190.864C191.368 12.476 191.752 12.368 192.016 12.152C192.292 11.924 192.43 11.594 192.43 11.162C192.43 10.73 192.292 10.4 192.016 10.172C191.752 9.944 191.368 9.83 190.864 9.83H188.848V12.476ZM191.116 17.516C191.632 17.516 192.028 17.402 192.304 17.174C192.592 16.934 192.736 16.592 192.736 16.148C192.736 15.704 192.586 15.356 192.286 15.104C191.998 14.852 191.596 14.726 191.08 14.726H188.848V17.516H191.116ZM204.08 20L201.452 15.23H200.714V20H197.636V7.364H202.802C203.798 7.364 204.644 7.538 205.34 7.886C206.048 8.234 206.576 8.714 206.924 9.326C207.272 9.926 207.446 10.598 207.446 11.342C207.446 12.182 207.206 12.932 206.726 13.592C206.258 14.252 205.562 14.72 204.638 14.996L207.554 20H204.08ZM200.714 13.052H202.622C203.186 13.052 203.606 12.914 203.882 12.638C204.17 12.362 204.314 11.972 204.314 11.468C204.314 10.988 204.17 10.61 203.882 10.334C203.606 10.058 203.186 9.92 202.622 9.92H200.714V13.052ZM212.456 9.83V12.386H216.578V14.762H212.456V17.534H217.118V20H209.378V7.364H217.118V9.83H212.456ZM222.516 17.534C222.924 17.21 223.11 17.06 223.074 17.084C224.25 16.112 225.174 15.314 225.846 14.69C226.53 14.066 227.106 13.412 227.574 12.728C228.042 12.044 228.276 11.378 228.276 10.73C228.276 10.238 228.162 9.854 227.934 9.578C227.706 9.302 227.364 9.164 226.908 9.164C226.452 9.164 226.092 9.338 225.828 9.686C225.576 10.022 225.45 10.502 225.45 11.126H222.48C222.504 10.106 222.72 9.254 223.128 8.57C223.548 7.886 224.094 7.382 224.766 7.058C225.45 6.734 226.206 6.572 227.034 6.572C228.462 6.572 229.536 6.938 230.256 7.67C230.988 8.402 231.354 9.356 231.354 10.532C231.354 11.816 230.916 13.01 230.04 14.114C229.164 15.206 228.048 16.274 226.692 17.318H231.552V19.82H222.516V17.534ZM232.908 13.25C232.908 11.186 233.304 9.56 234.096 8.372C234.9 7.184 236.19 6.59 237.966 6.59C239.742 6.59 241.026 7.184 241.818 8.372C242.622 9.56 243.024 11.186 243.024 13.25C243.024 15.338 242.622 16.976 241.818 18.164C241.026 19.352 239.742 19.946 237.966 19.946C236.19 19.946 234.9 19.352 234.096 18.164C233.304 16.976 232.908 15.338 232.908 13.25ZM240 13.25C240 12.038 239.868 11.108 239.604 10.46C239.34 9.8 238.794 9.47 237.966 9.47C237.138 9.47 236.592 9.8 236.328 10.46C236.064 11.108 235.932 12.038 235.932 13.25C235.932 14.066 235.98 14.744 236.076 15.284C236.172 15.812 236.364 16.244 236.652 16.58C236.952 16.904 237.39 17.066 237.966 17.066C238.542 17.066 238.974 16.904 239.262 16.58C239.562 16.244 239.76 15.812 239.856 15.284C239.952 14.744 240 14.066 240 13.25ZM244.542 17.534C244.95 17.21 245.136 17.06 245.1 17.084C246.276 16.112 247.2 15.314 247.872 14.69C248.556 14.066 249.132 13.412 249.6 12.728C250.068 12.044 250.302 11.378 250.302 10.73C250.302 10.238 250.188 9.854 249.96 9.578C249.732 9.302 249.39 9.164 248.934 9.164C248.478 9.164 248.118 9.338 247.854 9.686C247.602 10.022 247.476 10.502 247.476 11.126H244.506C244.53 10.106 244.746 9.254 245.154 8.57C245.574 7.886 246.12 7.382 246.792 7.058C247.476 6.734 248.232 6.572 249.06 6.572C250.488 6.572 251.562 6.938 252.282 7.67C253.014 8.402 253.38 9.356 253.38 10.532C253.38 11.816 252.942 13.01 252.066 14.114C251.19 15.206 250.074 16.274 248.718 17.318H253.578V19.82H244.542V17.534ZM255.041 10.568C255.089 9.284 255.509 8.294 256.301 7.598C257.093 6.902 258.167 6.554 259.523 6.554C260.423 6.554 261.191 6.71 261.827 7.022C262.475 7.334 262.961 7.76 263.285 8.3C263.621 8.84 263.789 9.446 263.789 10.118C263.789 10.91 263.591 11.558 263.195 12.062C262.799 12.554 262.337 12.89 261.809 13.07V13.142C262.493 13.37 263.033 13.748 263.429 14.276C263.825 14.804 264.023 15.482 264.023 16.31C264.023 17.054 263.849 17.714 263.501 18.29C263.165 18.854 262.667 19.298 262.007 19.622C261.359 19.946 260.585 20.108 259.685 20.108C258.245 20.108 257.093 19.754 256.229 19.046C255.377 18.338 254.927 17.27 254.879 15.842H257.867C257.879 16.37 258.029 16.79 258.317 17.102C258.605 17.402 259.025 17.552 259.577 17.552C260.045 17.552 260.405 17.42 260.657 17.156C260.921 16.88 261.053 16.52 261.053 16.076C261.053 15.5 260.867 15.086 260.495 14.834C260.135 14.57 259.553 14.438 258.749 14.438H258.173V11.936H258.749C259.361 11.936 259.853 11.834 260.225 11.63C260.609 11.414 260.801 11.036 260.801 10.496C260.801 10.064 260.681 9.728 260.441 9.488C260.201 9.248 259.871 9.128 259.451 9.128C258.995 9.128 258.653 9.266 258.425 9.542C258.209 9.818 258.083 10.16 258.047 10.568H255.041Z" fill="#FFFA7B"/>
<path d="M17.0196 39H44.5555V50.25H17.0196C16.1852 50.25 15.768 50.6667 15.768 51.5V61.5C15.768 62.3333 16.1852 62.75 17.0196 62.75H29.5359C30.3704 62.75 30.7876 62.3333 30.7876 61.5V60.25H18.2712V52.75H44.5555V62.75C44.5555 70.25 39.549 74 29.5359 74H17.0196C7.00653 74 2 70.25 2 62.75V50.25C2 42.75 7.00653 39 17.0196 39Z" fill="#FFF4BE"/>
<path d="M61.6258 50.25V55.25H76.6454C77.4798 55.25 77.8971 54.8333 77.8971 54V51.5C77.8971 50.6667 77.4798 50.25 76.6454 50.25H61.6258ZM49.1095 39H76.6454C86.6585 39 91.665 42.75 91.665 50.25V55.25C91.665 57.45 91.2395 59.325 90.3884 60.875C91.2395 62.425 91.665 64.3 91.665 66.5V74H77.8971V67.75C77.8971 66.9167 77.4798 66.5 76.6454 66.5H61.6258V74H49.1095V39Z" fill="#FFF4BE"/>
<path d="M108.735 52.75H131.265V60.25H108.735V62.75H136.271V74H96.219V39H136.271V50.25H108.735V52.75Z" fill="#FFF4BE"/>
<path d="M155.845 39H183.381V50.25H155.845C155.01 50.25 154.593 50.6667 154.593 51.5V61.5C154.593 62.3333 155.01 62.75 155.845 62.75H168.361C169.196 62.75 169.613 62.3333 169.613 61.5V60.25H157.096V52.75H183.381V62.75C183.381 70.25 178.374 74 168.361 74H155.845C145.832 74 140.825 70.25 140.825 62.75V50.25C140.825 42.75 145.832 39 155.845 39Z" fill="#FFF4BE"/>
<path d="M200.451 55.25V74H187.935V39H204.206L215.471 56.5L226.735 39H243.007V74H230.49V55.25L219.226 74H211.716L200.451 55.25Z" fill="#FFF4BE"/>
<path d="M260.077 55.25V74H247.56V39H263.832L275.096 56.5L286.361 39H302.632V74H290.116V55.25L278.851 74H271.342L260.077 55.25Z" fill="#FFF4BE"/>
<path d="M302.18 74L322.206 39H335.974L356 74H340.98L338.477 69H319.703L317.199 74H302.18ZM332.219 57.75L329.09 51.5L325.961 57.75H332.219Z" fill="#FFF4BE"/>
<path d="M33.2262 93C39.4903 93 42.6223 95.3571 42.6223 100.071V100.857H34.0092C34.0092 100.333 33.7482 100.071 33.2262 100.071H25.3961C24.8741 100.071 24.6131 100.333 24.6131 100.857C24.6131 101.381 24.8741 101.643 25.3961 101.643H33.2262C39.4903 101.643 42.6223 103.214 42.6223 106.357V107.929C42.6223 112.643 39.4903 115 33.2262 115H25.3961C19.132 115 16 112.643 16 107.929V107.143H24.6131C24.6131 107.667 24.8741 107.929 25.3961 107.929H33.2262C33.7482 107.929 34.0092 107.667 34.0092 107.143C34.0092 106.619 33.7482 106.357 33.2262 106.357H25.3961C19.132 106.357 16 104.786 16 101.643V100.071C16 95.3571 19.132 93 25.3961 93H33.2262Z" fill="#FFFA7B"/>
<path d="M61.9144 100.071V115H54.0843V100.071H45.4712V93H70.5275V100.071H61.9144Z" fill="#FFFA7B"/>
<path d="M70.2444 115L82.7725 93H91.3856L103.914 115H94.5177L92.9517 111.857H81.2065L79.6405 115H70.2444ZM89.0366 104.786L87.0791 100.857L85.1216 104.786H89.0366Z" fill="#FFFA7B"/>
<path d="M113.027 93H130.253V100.071H113.027C112.505 100.071 112.244 100.333 112.244 100.857V107.143C112.244 107.667 112.505 107.929 113.027 107.929H120.857C121.379 107.929 121.64 107.667 121.64 107.143V106.357H113.81V101.643H130.253V107.929C130.253 112.643 127.121 115 120.857 115H113.027C106.763 115 103.631 112.643 103.631 107.929V100.071C103.631 95.3571 106.763 93 113.027 93Z" fill="#FFFA7B"/>
<path d="M140.932 101.643H155.026V106.357H140.932V107.929H158.158V115H133.102V93H158.158V100.071H140.932V101.643Z" fill="#FFFA7B"/>
<path d="M178.075 100.071V107.929H187.472C187.994 107.929 188.255 107.667 188.255 107.143V100.857C188.255 100.333 187.994 100.071 187.472 100.071H178.075ZM170.245 93H187.472C193.736 93 196.868 95.3571 196.868 100.071V107.929C196.868 112.643 193.736 115 187.472 115H170.245V93Z" fill="#FFFA7B"/>
<path d="M207.547 101.643H221.641V106.357H207.547V107.929H224.773V115H199.717V93H224.773V100.071H207.547V101.643Z" fill="#FFFA7B"/>
<path d="M244.69 103.214V115H236.86V93H247.039L254.086 104L261.133 93H271.312V115H263.482V103.214L256.435 115H251.737L244.69 103.214Z" fill="#FFFA7B"/>
<path d="M281.991 103.214V115H274.161V93H284.34L291.388 104L298.435 93H308.614V115H300.784V103.214L293.737 115H289.038L281.991 103.214Z" fill="#FFFA7B"/>
<path d="M308.331 115L320.859 93H329.472L342 115H332.604L331.038 111.857H319.293L317.727 115H308.331ZM327.123 104.786L325.165 100.857L323.208 104.786H327.123Z" fill="#FFFA7B"/>
</svg>
